<svg id="Layer_1" enable-background="new 0 0 510 510" height="512" viewBox="0 0 510 510" width="512" xmlns="http://www.w3.org/2000/svg"><path d="m510 270c0-19.555-12.541-36.229-30-42.42v-182.58h-81.213l-30 30h-227.574l-30-30h-81.213v182.58c-17.459 6.191-30 22.865-30 42.42v135h60v60h90v-60h210v60h90v-60h60zm-150-45h-90v-30h75c8.272 0 15 6.729 15 15zm-120 0h-90v-15c0-8.271 6.729-15 15-15h75zm-120 30h270v60h-270zm300 0h45c8.272 0 15 6.728 15 15v15h-60zm-360-180h38.787l30 30h36.213v30h30v-30h45v30h30v-30h45v30h30v-30h36.213l30-30h38.787v150h-60v-15c0-24.814-20.186-45-45-45h-180c-24.814 0-45 20.186-45 45v15h-60zm-15 180h45v30h-60v-15c0-8.272 6.729-15 15-15zm75 180h-30v-30h30zm300 0h-30v-30h30zm-390-60v-60h60v30h330v-30h60v60z"/></svg>