<svg id="Layer_1" height="512" viewBox="0 0 512 512" width="512" xmlns="http://www.w3.org/2000/svg"><g><g><path d="m365.956 440.086h-144.923c-1.657 0-3-1.343-3-3v-103.311c0-1.044.543-2.013 1.433-2.558l75.942-46.514c.425-.26.908-.411 1.405-.438 2.749-.148 5.637-.223 8.585-.223 33.292 0 77.808 9.683 91.012 24.098 9.559 10.435 17.746 41.754 22.931 66.191 3.419 16.11-.575 32.701-10.958 45.518-10.416 12.861-25.881 20.237-42.427 20.237zm-141.923-6h141.923c14.728 0 28.493-6.565 37.767-18.014 9.238-11.404 12.792-26.164 9.75-40.496-7.008-33.025-14.839-56.127-21.486-63.384-10.619-11.593-51.89-22.15-86.588-22.15-2.572 0-5.094.059-7.508.176l-73.858 45.238z" fill="rgb(0,0,0)"/></g><g><g><path d="m324.745 160.021h-151.218c-1.553 0-2.85-1.186-2.988-2.732l-6.361-71.005c-.143-1.599.998-3.027 2.589-3.241l25.976-3.488c1.646-.225 3.152.932 3.373 2.574s-.932 3.152-2.574 3.373l-23.131 3.106 5.859 65.414h145.732l5.86-65.42-78.017-10.659-30.761 4.13c-1.644.224-3.152-.932-3.373-2.574s.932-3.152 2.574-3.373l31.164-4.185c.268-.037.538-.037.806.001l81.257 11.102c1.588.217 2.725 1.644 2.582 3.24l-6.36 71.005c-.139 1.546-1.436 2.732-2.989 2.732z" fill="rgb(0,0,0)"/></g><g><g><path d="m249.092 290.102c-23.744 0-52.635-25.766-66.332-58.933-4.613-1.2-12.671-5.008-16.643-17.068-2.949-8.958-.292-17.254 2.88-21.638 1.964-2.714 4.277-4.255 6.543-4.367l1.355-5.557c.191-.784.69-1.458 1.383-1.869.694-.412 1.525-.527 2.304-.319.313.083.552.122.755.122h134.321c1.083 0 2.082.584 2.614 1.527l3.448 6.121c.184-.021.37-.032.559-.032 1.437 0 3.6.623 5.745 3.586 3.359 4.643 5.416 13.378 2.437 22.425-4.307 13.08-11.58 16.477-15.158 17.358-13.744 33.028-42.534 58.644-66.211 58.644zm-73.583-95.852c-.505.346-1.468 1.254-2.411 2.92-.926 1.633-3.753 7.547-1.282 15.054 3.37 10.232 9.982 12.781 13.624 13.389 1.037.173 1.907.876 2.294 1.853 12.593 31.758 39.544 56.636 61.357 56.636 21.82 0 48.774-24.884 61.364-56.652.554-1.396 2.051-2.163 3.499-1.81 1.96-.476 7.291-2.736 10.808-13.417 2.88-8.745-.399-16.109-2.245-17.833-.571.494-1.32.767-2.087.735-1.039-.042-1.991-.607-2.501-1.513l-4.022-7.14h-131.795l-1.556 6.378c-.281 1.154-1.217 2.033-2.386 2.242-.983.179-1.975-.148-2.661-.842z" fill="rgb(0,0,0)"/></g></g><g><path d="m316.934 186.473h-135.597c-4.666 0-8.498-3.504-8.914-8.152l-1.884-21.033c-.075-.839.206-1.67.774-2.292s1.372-.976 2.214-.976h151.218c.842 0 1.646.354 2.214.976s.849 1.453.774 2.292l-1.884 21.033c-.416 4.648-4.249 8.152-8.915 8.152zm-140.126-26.452 1.591 17.765c.138 1.532 1.401 2.687 2.938 2.687h135.597c1.538 0 2.801-1.155 2.939-2.687l1.591-17.765z" fill="rgb(0,0,0)"/></g></g><g><g><path d="m181.744 214.217c-.03 0-.06 0-.09-.001-1.38-.041-2.554-1.019-2.844-2.368l-4.101-19.077c-.044-.207-.067-.418-.067-.63 0-3.155.152-6.489.451-9.91.092-1.051.73-1.977 1.68-2.438s2.071-.389 2.955.191c.488.32 1.045.489 1.61.489h8.121c.938 0 1.821.438 2.389 1.185s.753 1.715.501 2.619l-7.715 27.744c-.363 1.3-1.547 2.196-2.89 2.196zm-1.101-22.393 1.474 6.854 3.394-12.205h-4.172c-.178 0-.356-.005-.533-.016-.103 1.836-.158 3.63-.163 5.367z" fill="rgb(0,0,0)"/></g><g><path d="m315.183 214.217c-.031 0-.063 0-.093-.001-1.378-.042-2.55-1.019-2.84-2.367l-5.978-27.744c-.191-.886.029-1.811.599-2.517.569-.705 1.427-1.115 2.334-1.115h7.73c.733 0 1.308-.29 1.661-.534.896-.616 2.056-.701 3.03-.22.976.481 1.614 1.453 1.668 2.539.165 3.272.248 6.597.248 9.881 0 .274-.038.547-.112.812l-5.36 19.077c-.364 1.298-1.547 2.189-2.887 2.189zm-2.264-27.744 2.647 12.285 1.975-7.029c-.004-1.751-.032-3.513-.084-5.271-.174.01-.348.016-.523.016h-4.015z" fill="rgb(0,0,0)"/></g></g><g fill="rgb(0,0,0)"><path d="m249.136 126.001c-1.657 0-3-1.343-3-3v-26.996c0-1.657 1.343-3 3-3s3 1.343 3 3v26.997c0 1.656-1.344 2.999-3 2.999z"/><path d="m257.696 355.917h-18.662c-1.657 0-3-1.343-3-3s1.343-3 3-3h18.662c1.657 0 3 1.343 3 3s-1.343 3-3 3z"/><path d="m257.696 385.719h-18.662c-1.657 0-3-1.343-3-3s1.343-3 3-3h18.662c1.657 0 3 1.343 3 3s-1.343 3-3 3z"/><path d="m257.696 415.522h-18.662c-1.657 0-3-1.343-3-3s1.343-3 3-3h18.662c1.657 0 3 1.343 3 3s-1.343 3-3 3z"/><path d="m431.272 440.086h-21.425c-1.657 0-3-1.343-3-3s1.343-3 3-3h21.425c1.657 0 3 1.343 3 3s-1.343 3-3 3z"/><path d="m349.972 406.326h-37.732c-1.657 0-3-1.343-3-3s1.343-3 3-3h37.732c1.657 0 3 1.343 3 3s-1.344 3-3 3z"/><path d="m128.778 99.005h-33.327c-1.657 0-3-1.343-3-3s1.343-3 3-3h33.327c1.657 0 3 1.343 3 3s-1.343 3-3 3z"/><g><path d="m130.632 299.576c20.804-6.711 47.897-10.359 69.385-9.375l35.345 34.366 4.994-3.513-36.969-35.945c-.52-.506-1.206-.806-1.93-.845-22.334-1.202-50.859 2.565-72.668 9.601-1.577.509-2.443 2.199-1.934 3.776.51 1.577 2.203 2.442 3.777 1.935z"/><path d="m221.32 434.086h-89.004c-14.728 0-28.493-6.565-37.766-18.013-9.238-11.404-12.792-26.165-9.751-40.497 7.008-33.025 14.839-56.127 21.486-63.384 1.119-1.222 1.036-3.119-.186-4.239-1.222-1.119-3.12-1.035-4.239.186-9.558 10.435-17.746 41.754-22.931 66.191-3.418 16.111.576 32.702 10.958 45.519 10.418 12.86 25.882 20.236 42.428 20.236h89.004v-5.999z"/></g></g></g></svg>