<svg height="512pt" viewBox="-23 0 512 512.002" width="512pt" xmlns="http://www.w3.org/2000/svg"><path d="m454.042969 319.433594c7.351562-7.351563 11.402343-17.128906 11.402343-27.523438 0-5.554687-4.519531-10.074218-10.074218-10.074218h-147.054688l-20.945312-17.554688-25.511719-120.96875c-4.558594-21.597656-19.398437-39.683594-39.699219-48.378906l-16.5625-7.082032c-1.292968-.550781-2.601562-1.0625-3.921875-1.550781 5.40625-6.070312 8.703125-14.066406 8.703125-22.816406v-29.128906c0-18.941407-15.414062-34.355469-34.355468-34.355469h-6.21875c-18.945313 0-34.359376 15.414062-34.359376 34.355469v29.128906c0 8.523437 3.128907 16.328125 8.289063 22.339844-1.5625.546875-3.109375 1.136719-4.640625 1.777343l-16.867188 7.070313c-21.140624 8.859375-36.273437 27.605469-40.476562 50.148437l-11.214844 60.203126c-.761718 4.074218 1.925782 7.988281 5.996094 8.75.464844.085937.929688.125 1.382812.125 3.542969 0 6.695313-2.519532 7.367188-6.125l11.214844-60.203126c3.273437-17.558593 15.0625-32.164062 31.527344-39.0625l16.867187-7.074218c5.300781-2.21875 10.851563-3.769532 16.519531-4.636719 2.6875.679687 5.496094 1.042969 8.394532 1.042969h6.21875c2.644531 0 5.214843-.3125 7.691406-.878906 5.492187.925781 10.863281 2.492187 15.984375 4.683593l16.558593 7.078125c15.8125 6.773438 27.375 20.863282 30.925782 37.6875l25.515625 120.988282c.667969 3.234374 2.433593 6.191406 4.980469 8.332031l7.285156 6.105469h-6.722656c-9.078126 0-17-6.140626-19.265626-14.9375l-26.230468-101.816407c-1.117188-4.28125-5.113282-6.984375-9.511719-6.417969-4.390625.566407-7.578125 4.1875-7.578125 8.617188v77.019531h-21.683594c-1.125-.328125-2.34375-.402343-3.570312-.15625-.214844.042969-.417969.097657-.625.15625h-61.71875l-3.140625-80.191406c-.144531-4.195313-3.410157-7.609375-7.597657-7.941406-4.191406-.332031-7.957031 2.535156-8.753906 6.644531l-20.023437 102.152344c-1.917969 9.777344-10.539063 16.871094-20.5 16.871094h-9.613281l12.003906-10.460938c2.308594-1.992188 3.886718-4.753906 4.441406-7.769531l4.609375-24.734375c.757813-4.074219-1.925781-7.988282-6-8.746094-4.070313-.757812-7.988281 1.925781-8.746094 6l-4.519531 24.253906-24.613281 21.457032h-25.53125c-2.652344 0-5.160157 1.027343-7.066407 2.890624-.039062.039063-.078124.078126-.117187.117188-1.863281 1.90625-2.890625 4.414062-2.890625 7.066406 0 18.789063 13.453125 34.558594 31.253906 38.152344v166.675781h-9.1875c-4.140625 0-7.5 3.359375-7.5 7.5 0 4.144531 3.359375 7.5 7.5 7.5h14.753906c.617188.167969 1.265626.265625 1.9375.265625h387.933594c.671875 0 1.320313-.097656 1.9375-.265625h14.753906c4.144532 0 7.5-3.355469 7.5-7.5 0-4.140625-3.355468-7.5-7.5-7.5h-9.191406v-166.660156c7.472656-1.492187 14.347656-5.144531 19.851563-10.644531zm-303.597657-255.949219v-29.128906c0-10.671875 8.683594-19.355469 19.359376-19.355469h6.21875c10.671874 0 19.355468 8.683594 19.355468 19.355469v29.128906c0 10.671875-8.683594 19.355469-19.355468 19.355469h-6.21875c-10.675782 0-19.359376-8.683594-19.359376-19.355469zm94.007813 207.15625c1.054687 4.101563 2.820313 7.867187 5.128906 11.195313h-10.296875l-8.628906-31.054688v-33.6875zm-26.996094-11.335937 17.125 61.636718c.308594 1.105469.539063 2.246094.707031 3.476563.160157 1.097656.242188 2.269531.242188 3.476562v26.964844c-12.183594 4.566406-24.914062 7.886719-37.847656 9.863281-.910156.140625-1.820313.269532-2.734375.398438-6.117188-7.542969-15.492188-21.847656-14.039063-37.300782.839844-8.921874 5.355469-19.980468 5.398438-20.085937 2.039062-4.945313 3.835937-7.871094 5.570312-10.695313 1.351563-2.199218 2.75-4.476562 4.113282-7.425781 4.078124-8.824219 5.601562-18.992187 4.582031-30.308593zm-83.792969 237.433593c4.957032-3.570312 9.132813-8.203125 12.125-13.589843l10.445313-18.820313.882813 2.273437-11.925782 30.136719zm8.199219-69.363281 7.300781 18.777344-16.492187 29.714844c-3.433594 6.183593-9.308594 10.832031-16.113281 12.746093l-2.289063.640625zm19.949219 68.128906 10.335938-26.117187c.695312-1.757813.703124-3.714844.019531-5.480469l-7.75-19.917969c-.003907-.015625-.007813-.027343-.015625-.039062l-14.996094-38.566407c-.027344-.070312-.054688-.140624-.082031-.214843l-9.890625-25.445313c8.316406 1.21875 16.710937 1.933594 25.109375 2.121094l7.488281 27.578125c.003906.015625.007812.027344.011719.039063l15.6875 57.777343c.445312 2.117188-.136719 4.347657-1.5625 5.988281l-12.800781 14.671876c-3.121094 3.574218-7.128907 6.183593-11.554688 7.605468zm18.210938-113.902344c1.71875-.089843 3.433593-.199218 5.152343-.332031l-3.523437 6.339844zm5.484374-122.296874c1.023438 9.222656-.023437 17.285156-3.132812 24.015624-.992188 2.144532-2.050781 3.867188-3.277344 5.863282-1.949218 3.175781-4.160156 6.773437-6.660156 12.839844-.550781 1.34375-5.429688 13.453124-6.460938 24.390624-.757812 8.085938.078126 22.9375 11.511719 40.300782-2.417969.105468-4.832031.171875-7.242187.183594-13.644532.085937-27.339844-1.316407-40.703125-4.171876-.121094-.03125-.246094-.0625-.371094-.085937-8.992187-1.929687-17.933594-4.546875-26.578125-7.777344v-25.699219c0-1.519531.132812-3.039062.394531-4.519531.265625-1.480469.644531-2.914062 1.132813-4.265625l21.996094-61.074218zm-82.242187 8.546874 8.921875-45.519531 1.109375 28.304688-11.238281 31.199219h-4.851563c2.929688-4.078126 5.042969-8.8125 6.058594-13.984376zm-87.753906 28.984376h81.144531l-6.640625 18.441406c-.066406.183594-.125.371094-.1875.558594h-51.035156c-11.429688-.0625-21.007813-8.21875-23.28125-19zm30.742187 34h41.339844v24.292968c0 6.050782 3.789062 11.542969 9.441406 13.671875 8.152344 3.0625 16.550782 5.613281 25.015625 7.609375l12.164063 31.285156-33.722656 75.625c-1.96875 4.425782-1.683594 9.34375.644531 13.417969h-54.882813zm139.308594 165.902343 11.914062-13.65625c4.597657-5.28125 6.410157-12.5 4.851563-19.3125-.023437-.097656-.046875-.195312-.074219-.292969l-14.964844-55.117187 16.335938-29.417969c12.785156-2.195312 25.367188-5.589844 37.445312-10.140625 5.65625-2.125 9.460938-7.625 9.460938-13.683593v-27.226563c0-1.929687-.132812-3.824219-.386719-5.5625-.246093-1.824219-.621093-3.636719-1.109375-5.398437l-5.582031-20.09375h206.488281c-.941406 4.511718-3.171875 8.652343-6.507812 11.988281-4.480469 4.484375-10.441406 6.972656-16.742188 7.011719h-144.582031c-4.144531 0-7.5 3.355468-7.5 7.5 0 4.140624 3.355469 7.5 7.5 7.5h137.082031v165.902343zm0 0"/><path d="m315.871094 237.484375c4.144531 0 7.5-3.359375 7.5-7.5 0-13.335937 4.097656-19.679687 8.84375-27.027344 5.265625-8.15625 11.238281-17.402343 11.238281-35.160156s-5.972656-27.003906-11.238281-35.164063c-2.246094-3.480468-6.890625-4.476562-10.371094-2.230468-3.476562 2.246094-4.476562 6.890625-2.230469 10.367187 4.742188 7.347657 8.839844 13.691407 8.839844 27.027344 0 13.332031-4.097656 19.679687-8.839844 27.023437-5.269531 8.160157-11.238281 17.40625-11.238281 35.164063-.003906 4.140625 3.355469 7.5 7.496094 7.5zm0 0"/><path d="m315.871094 113.105469c4.144531 0 7.5-3.355469 7.5-7.5 0-13.335938 4.097656-19.675781 8.84375-27.023438 5.265625-8.15625 11.238281-17.402343 11.238281-35.160156 0-4.144531-3.355469-7.5-7.5-7.5s-7.5 3.355469-7.5 7.5c0 13.335937-4.097656 19.675781-8.839844 27.023437-5.269531 8.15625-11.242187 17.402344-11.242187 35.160157 0 4.144531 3.359375 7.5 7.5 7.5zm0 0"/><path d="m373.710938 237.484375c4.144531 0 7.5-3.359375 7.5-7.5 0-13.335937 4.097656-19.679687 8.84375-27.027344 1.289062-1.996093 2.621093-4.058593 3.902343-6.304687 2.050781-3.601563.792969-8.179688-2.804687-10.230469-3.601563-2.050781-8.179688-.796875-10.230469 2.804687-1.074219 1.882813-2.238281 3.6875-3.472656 5.59375-5.265625 8.160157-11.238281 17.40625-11.238281 35.164063 0 4.140625 3.359374 7.5 7.5 7.5zm0 0"/><path d="m386.292969 167.796875c0 4.140625 3.359375 7.5 7.5 7.5 4.144531 0 7.5-3.359375 7.5-7.5 0-17.761719-5.972657-27.007813-11.238281-35.164063-4.746094-7.347656-8.839844-13.691406-8.839844-27.027343 0-13.335938 4.09375-19.679688 8.839844-27.023438 5.269531-8.160156 11.238281-17.40625 11.238281-35.160156 0-4.144531-3.355469-7.503906-7.5-7.503906-4.140625 0-7.5 3.359375-7.5 7.503906 0 13.332031-4.097657 19.675781-8.839844 27.023437-5.269531 8.15625-11.242187 17.402344-11.242187 35.160157 0 17.757812 5.972656 27.003906 11.242187 35.164062 4.742187 7.347657 8.839844 13.691407 8.839844 27.027344zm0 0"/><path d="m423.535156 229.984375c0 4.140625 3.359375 7.5 7.5 7.5 4.144532 0 7.503906-3.359375 7.503906-7.5 0-13.335937 4.09375-19.679687 8.839844-27.027344 5.269532-8.15625 11.238282-17.402343 11.238282-35.160156 0-17.761719-5.96875-27.007813-11.238282-35.164063-4.746094-7.347656-8.839844-13.691406-8.839844-27.027343 0-4.5625.472657-8.539063 1.453126-12.160157 1.082031-3.996093-1.285157-8.117187-5.285157-9.195312-3.992187-1.082031-8.113281 1.28125-9.195312 5.28125-1.328125 4.914062-1.976563 10.171875-1.976563 16.074219 0 17.757812 5.972656 27.003906 11.242188 35.164062 4.742187 7.347657 8.839844 13.6875 8.839844 27.027344 0 13.335937-4.097657 19.675781-8.839844 27.023437-5.269532 8.160157-11.242188 17.40625-11.242188 35.164063zm0 0"/><path d="m442.820312 72.621094c1.078126.539062 2.226563.796875 3.355469.796875 2.746094 0 5.394531-1.511719 6.710938-4.136719 3.910156-7.785156 5.730469-16.003906 5.730469-25.859375 0-4.144531-3.355469-7.503906-7.5-7.503906-4.144532 0-7.5 3.359375-7.5 7.503906 0 9.652344-2.210938 15.292969-4.136719 19.128906-1.859375 3.703125-.363281 8.210938 3.339843 10.070313zm0 0"/></svg>