<svg id="breakfast_x5F_plate" enable-background="new 0 0 300 300" height="512" viewBox="0 0 300 300" width="512" xmlns="http://www.w3.org/2000/svg"><g><path d="m241.606 48.054h.004c2.211-.004 4-1.797 3.996-4.006l-.012-8c-.004-2.207-1.793-3.994-4-3.994 0 0-.004 0-.008 0-2.207.004-3.996 1.797-3.992 4.006l.012 8c.004 2.207 1.793 3.994 4 3.994z"/><path d="m241.622 56.054c-2.211.002-4 1.795-3.996 4.004l.008 8c.004 2.207 1.793 3.996 4 3.996h.004c2.211-.002 4-1.795 3.996-4.004l-.008-8c-.004-2.207-1.793-3.996-4-3.996z"/><path d="m225.614 56.071h.004l8-.01c2.211-.002 4-1.795 3.996-4.006-.004-2.207-1.793-3.994-4-3.994h-.004l-8 .01c-2.211.002-4 1.795-3.996 4.006.004 2.207 1.793 3.994 4 3.994z"/><path d="m257.614 48.034h-.004l-8 .01c-2.211.002-4 1.795-3.996 4.006.004 2.207 1.793 3.994 4 3.994h.004l8-.01c2.211-.002 4-1.795 3.996-4.006-.004-2.207-1.793-3.994-4-3.994z"/><path d="m57.704 93.929c-.012-7.713-6.289-13.982-14-13.982-.004 0-.012 0-.016 0-3.742.004-7.254 1.465-9.895 4.111-2.645 2.648-4.094 6.166-4.09 9.906.012 7.713 6.289 13.982 14 13.982h.016c3.742-.004 7.254-1.465 9.895-4.111 2.644-2.648 4.094-6.166 4.09-9.906zm-9.75 4.256c-1.133 1.135-2.641 1.76-4.242 1.762-.004 0-.004 0-.008 0-3.305 0-5.996-2.688-6-5.994-.004-1.602.621-3.109 1.75-4.244 1.133-1.135 2.641-1.76 4.242-1.762h.008c3.305 0 5.996 2.688 6 5.994.004 1.601-.621 3.109-1.75 4.244z"/><path d="m266.015 98.163c-2.362.003-4.274 1.919-4.271 4.281s1.919 4.274 4.281 4.272c2.362-.003 4.274-1.92 4.271-4.281s-1.919-4.275-4.281-4.272z"/><path d="m66.025 46.716c2.362-.003 4.274-1.92 4.271-4.281s-1.919-4.274-4.281-4.271-4.274 1.919-4.271 4.281c.002 2.361 1.919 4.273 4.281 4.271z"/><path d="m156.77 59.284c-7.607 0-15.162.869-22.529 2.491l-.858-8.78c-.109-1.145-.711-2.186-1.645-2.857-.93-.672-2.109-.916-3.23-.652l-47.578 10.9c-1.156.266-2.137 1.033-2.676 2.094-.535 1.061-.574 2.307-.098 3.396l7.199 16.6c.564 1.298.899 2.671 1.087 4.073-21.612 19.733-34.005 47.819-34.005 77.067 0 57.527 46.805 104.33 104.332 104.33s104.332-46.803 104.332-104.33c.001-57.529-46.804-104.332-104.331-104.332zm69.231 100.639c-4.719-5.343-10.903-9.187-17.95-11.061-2.515-.669-5.088-.966-7.66-1.092.664-2.751 1.054-5.608 1.054-8.561 0-1.555-.105-3.123-.309-4.693 5.087-3.047 8.748-7.919 10.31-13.559 8.765 11.178 13.809 24.635 14.555 38.966zm-83.526 81.095-4.443-10.742c-1.977-4.785-3.148-9.834-3.488-15.004l-.578-8.93c-.332-5.076-1.445-10.041-3.309-14.76l-3.297-8.354c-2.281-5.789-3.625-11.861-4.004-18.049l-.594-9.74c-.191-3.123-.863-6.176-2-9.078l-4.879-12.447c-2.016-5.148-3.195-10.559-3.504-16.082l-.617-10.912c-.145-2.586-.691-5.123-1.629-7.533l-2.977-7.654c-3.475-8.932-5.286-18.317-5.422-27.907l7.959-1.824c.353 10.145 2.366 20.07 6.119 29.51l2.535 6.385c.637 1.596 1.02 3.271 1.137 4.975l.926 13.256c.43 6.156 1.797 12.182 4.062 17.906l4.44 11.239c.356 2.118.892 4.169 1.597 6.147.127.816.301 1.624.357 2.452l.68 10.125c.461 6.766 1.934 13.396 4.379 19.711l3.816 9.836c1.504 3.875 2.402 7.938 2.676 12.076l.582 8.729c.426 6.441 1.965 12.705 4.566 18.617l2.754 6.255zm18.751-61.188-.428-4.206c-.004-.041-.015-.082-.019-.123.788.089 1.59.124 2.393.162-.293 1.229-.569 2.466-.733 3.732-.417.12-.807.294-1.213.435zm-8.845-6.338c.179.979.354 1.958.455 2.948l.797 7.825c-2.489 2.192-4.51 4.902-5.87 8.015-.188-.542-.353-1.092-.561-1.629l-3.816-9.836c-1.89-4.872-3.078-9.966-3.624-15.159 3.595 3.418 7.877 6.097 12.619 7.836zm5.878 63.911-3.372-7.66c-1.891-4.294-3.08-8.812-3.631-13.449 2.857 3.394 6.714 5.991 11.279 7.284l4.044 11.919zm15.234-6.429-1.815-5.35c4.588.835 8.985 1.315 13.178 1.45-3.671 1.627-7.475 2.935-11.363 3.9zm27.686-13.391c-.166.033-.32.079-.482.134-12.152 3.059-25.857.877-35.751-1.755-7.98-2.123-12.746-10.346-10.625-18.328 1.551-5.836 6.418-10.148 12.398-10.99 1.902-.268 3.348-1.854 3.438-3.775.094-2.061.406-4.092.922-6.031.155-.59.347-1.16.538-1.731 11.327-2.114 20.81-9.463 25.87-19.44 2.857-.122 5.719.185 8.51.927 7.367 1.959 13.527 6.67 17.352 13.266s4.848 14.283 2.887 21.652c-4.186 15.739-13.94 23.133-25.057 26.071zm3.115-102.777c0 6.037-3.594 11.457-9.16 13.809-1.77.748-2.758 2.652-2.352 4.533.441 2.023.664 4.062.664 6.062 0 15.738-12.801 28.541-28.539 28.541-12.151 0-22.522-7.645-26.632-18.367-.357-1.988-.86-3.939-1.542-5.844-.217-1.416-.365-2.855-.365-4.331 0-34.27 33.168-39.387 52.941-39.387 8.262.001 14.985 6.722 14.985 14.984zm-60.114-10.113-3.126-8.641c7.822-1.806 15.935-2.241 23.906-1.304-8.214 2.171-15.199 5.512-20.78 9.945zm-16.308-25.844c.379 3.883 1.246 7.719 2.574 11.4l7.074 19.549c.126.35.244.703.361 1.057-3.564 4.323-6.127 9.346-7.698 14.966-.925-3.344-1.55-6.768-1.792-10.249l-.926-13.256c-.176-2.529-.742-5.01-1.68-7.373l-2.535-6.385c-3.604-9.06-5.504-18.605-5.658-28.365l8.271-1.895zm-34.044-13.211c.33 9.948 2.256 19.7 5.872 28.996l2.977 7.654c.633 1.625 1.004 3.336 1.102 5.084l.617 10.91c.355 6.371 1.715 12.611 4.043 18.551l4.879 12.447c.828 2.121 1.32 4.357 1.461 6.646l.594 9.74c.426 7.027 1.957 13.922 4.543 20.496l3.301 8.357c1.559 3.947 2.488 8.1 2.766 12.342l.578 8.93c.398 6.045 1.77 11.947 4.082 17.541l3.927 9.496-7.349 1.683-3.031-13.225c-.531-2.318-.926-4.699-1.176-7.076l-2.238-21.445c-.508-4.848-1.598-9.639-3.246-14.244l-7.352-20.539c-.844-2.361-1.375-4.818-1.574-7.311l-1.582-19.197c-.238-2.873-.871-5.684-1.879-8.35l-7.207-19.146c-.984-2.611-1.594-5.336-1.816-8.102l-1.566-19.18c-.211-2.562-.836-5.057-1.859-7.41l-5.281-12.18zm3.829 70.312c.746 1.975 1.215 4.057 1.391 6.186l1.578 19.188c.258 3.186.938 6.332 2.02 9.355l7.352 20.539c1.434 4.002 2.379 8.166 2.82 12.379l1.563 14.956c-17.023-13.101-27.021-33.147-27.021-54.936 0-11.593 2.881-22.841 8.321-32.913zm59.113 123.996c-53.117 0-96.332-43.213-96.332-96.33 0-24.903 9.752-48.88 26.914-66.752l.789 9.663c.285 3.504 1.059 6.959 2.305 10.271l1.628 4.324c-8.311 12.623-12.714 27.302-12.714 42.495 0 26.819 13.554 51.297 36.266 65.57.219 1.307.473 2.606.766 3.889l3.926 17.125c.426 1.852 2.07 3.105 3.895 3.105.297 0 .598-.031.898-.102l47.574-10.898c1.102-.252 2.047-.961 2.598-1.947.295-.529.44-1.112.477-1.704 10.171-2.575 19.844-7.255 28.181-13.673 15.122-4.331 25.669-15.03 30.03-31.414 1.792-6.741 1.599-13.684-.424-20.184.408-3.232.639-6.509.639-9.767 0-20.71-8.071-40.057-22.677-54.673-2.602-9.836-11.555-17.12-22.198-17.12-1.138 0-2.217.067-3.327.098-15.025-6.125-31.916-7.287-47.668-3.441l-.345-.952c-1.102-3.053-1.82-6.236-2.137-9.457l-.809-8.283c7.097-1.637 14.399-2.504 21.747-2.504 53.117 0 96.332 43.215 96.332 96.332s-43.217 96.329-96.334 96.329z"/><path d="m167.618 118.94c-9.684 0-17.559 7.877-17.559 17.559s7.875 17.559 17.559 17.559 17.559-7.877 17.559-17.559-7.876-17.559-17.559-17.559zm0 27.118c-5.27 0-9.559-4.287-9.559-9.559s4.289-9.559 9.559-9.559 9.559 4.287 9.559 9.559-4.29 9.559-9.559 9.559z"/><path d="m200.157 167.751c-9.684 0-17.559 7.875-17.559 17.557s7.875 17.559 17.559 17.559 17.559-7.877 17.559-17.559-7.876-17.557-17.559-17.557zm0 27.115c-5.27 0-9.559-4.287-9.559-9.559 0-5.27 4.289-9.557 9.559-9.557s9.559 4.287 9.559 9.557c-.001 5.272-4.29 9.559-9.559 9.559z"/></g></svg>