<svg id="icons" enable-background="new 0 0 64 64" height="512" viewBox="0 0 64 64" width="512" xmlns="http://www.w3.org/2000/svg"><g><g><path d="m54.999 64h-45.994c-.553 0-1-.447-1-1v-3c0-.553.447-1 1-1h45.994c.553 0 1 .447 1 1v3c0 .553-.447 1-1 1zm-44.994-2h43.994v-1h-43.994z"/></g><g><path d="m14.005 61c-.553 0-1-.447-1-1v-39c0-.553.447-1 1-1s1 .447 1 1v39c0 .553-.447 1-1 1z"/></g><g><path d="m12.005 24c-1.654 0-3-1.346-3-3s1.346-3 3-3 3 1.346 3 3c0 .553-.447 1-1 1s-1-.447-1-1c0-.552-.448-1-1-1s-1 .448-1 1 .448 1 1 1c.553 0 1 .447 1 1s-.447 1-1 1z"/></g><g><path d="m26.003 61c-.553 0-1-.447-1-1v-39.002c0-.553.447-1 1-1s1 .447 1 1v39.002c0 .553-.447 1-1 1z"/></g><g><path d="m38.001 61c-.553 0-1-.447-1-1v-39.07c0-.553.447-1 1-1s1 .447 1 1v39.07c0 .553-.447 1-1 1z"/></g><g><path d="m49.999 61c-.553 0-1-.447-1-1v-39c0-.553.447-1 1-1s1 .447 1 1v39c0 .553-.447 1-1 1z"/></g><g><path d="m51.999 24c-.553 0-1-.447-1-1s.447-1 1-1c.552 0 1-.448 1-1s-.448-1-1-1-1 .448-1 1c0 .553-.447 1-1 1s-1-.447-1-1c0-1.654 1.346-3 3-3s3 1.346 3 3-1.346 3-3 3z"/></g><g><path d="m18.001 61c-.553 0-1-.447-1-1v-14.003c0-.553.447-1 1-1s1 .447 1 1v14.003c0 .553-.447 1-1 1z"/></g><g><path d="m22.001 61c-.553 0-1-.447-1-1v-14.003c0-.553.447-1 1-1s1 .447 1 1v14.003c0 .553-.447 1-1 1z"/></g><g><path d="m30.001 61c-.553 0-1-.447-1-1v-14.003c0-.553.447-1 1-1s1 .447 1 1v14.003c0 .553-.447 1-1 1z"/></g><g><path d="m34.001 61c-.553 0-1-.447-1-1v-14.003c0-.553.447-1 1-1s1 .447 1 1v14.003c0 .553-.447 1-1 1z"/></g><g><path d="m42.001 61c-.553 0-1-.447-1-1v-14.003c0-.553.447-1 1-1s1 .447 1 1v14.003c0 .553-.447 1-1 1z"/></g><g><path d="m46.001 61c-.553 0-1-.447-1-1v-14.003c0-.553.447-1 1-1s1 .447 1 1v14.003c0 .553-.447 1-1 1z"/></g><g><path d="m51.001 46.997h-38c-.553 0-1-.447-1-1s.447-1 1-1h38c.553 0 1 .447 1 1s-.447 1-1 1z"/></g><g><path d="m57 20h-50c-.553 0-1-.447-1-1s.447-1 1-1h50c.553 0 1 .447 1 1s-.447 1-1 1z"/></g><g><path d="m7.001 20c-.311 0-.617-.145-.813-.416-.322-.448-.221-1.073.228-1.396l25.001-18c.448-.321 1.073-.221 1.396.228s.221 1.073-.228 1.396l-25.001 18c-.177.126-.381.188-.583.188z"/></g><g><path d="m56.999 20c-.202 0-.406-.062-.583-.188l-24.999-18c-.448-.322-.55-.947-.228-1.396.322-.449.946-.551 1.396-.228l24.999 18c.448.322.55.947.228 1.396-.196.271-.502.416-.813.416z"/></g><g><path d="m52.833 17h-41.666c-.553 0-1-.447-1-1s.447-1 1-1h41.666c.553 0 1 .447 1 1s-.447 1-1 1z"/></g><g><path d="m48.667 14h-33.334c-.553 0-1-.447-1-1s.447-1 1-1h33.334c.553 0 1 .447 1 1s-.447 1-1 1z"/></g><g><path d="m44.499 11h-24.998c-.553 0-1-.447-1-1s.447-1 1-1h24.998c.553 0 1 .447 1 1s-.447 1-1 1z"/></g><g><path d="m40.333 8h-16.666c-.553 0-1-.447-1-1s.447-1 1-1h16.666c.553 0 1 .447 1 1s-.447 1-1 1z"/></g><g><path d="m36.166 5h-8.332c-.553 0-1-.447-1-1s.447-1 1-1h8.332c.553 0 1 .447 1 1s-.447 1-1 1z"/></g><g><path d="m24.001 23.996c-1.653 0-2.998-1.345-2.998-2.998s1.345-2.998 2.998-2.998 2.999 1.345 2.999 2.998c0 .553-.447 1-1 1s-1-.447-1-1c0-.551-.448-.998-.999-.998s-.998.447-.998.998.447.998.998.998c.553 0 1 .447 1 1s-.447 1-1 1z"/></g><g><path d="m40 23.996c-.553 0-1-.447-1-1s.447-1 1-1c.551 0 .999-.447.999-.998s-.448-.998-.999-.998-.998.447-.998.998c0 .553-.447 1-1 1s-1-.447-1-1c0-1.653 1.345-2.998 2.998-2.998s2.999 1.345 2.999 2.998-1.346 2.998-2.999 2.998z"/></g><g><path d="m26 23.994h-1.999c-.553 0-1-.447-1-1s.447-1 1-1h1.999c.553 0 1 .447 1 1s-.447 1-1 1z"/></g><g><path d="m26 24c-.553 0-1-.447-1-1s.447-1 1-1c1.654 0 3-1.346 3-3 0-.553.447-1 1-1s1 .447 1 1c0 2.757-2.243 5-5 5z"/></g><g><path d="m26 24c-.553 0-1-.447-1-1s.447-1 1-1c1.654 0 3-1.346 3-3 0-.553.447-1 1-1s1 .447 1 1c0 2.757-2.243 5-5 5z"/></g><g><path d="m40.005 23.994h-1.999c-.553 0-1-.447-1-1s.447-1 1-1h1.999c.553 0 1 .447 1 1s-.447 1-1 1z"/></g><g><path d="m38.006 24c-2.757 0-5-2.243-5-5 0-.553.447-1 1-1s1 .447 1 1c0 1.654 1.346 3 3 3 .553 0 1 .447 1 1s-.447 1-1 1z"/></g><g><path d="m38.006 23.994h-12.006c-.553 0-1-.447-1-1s.447-1 1-1h12.006c.553 0 1 .447 1 1s-.447 1-1 1z"/></g></g></svg>