<?xml version="1.0" encoding="iso-8859-1"?>
<!-- Generator: Adobe Illustrator 19.0.0, SVG Export Plug-In . SVG Version: 6.00 Build 0)  -->
<svg version="1.1" id="Capa_1" xmlns="http://www.w3.org/2000/svg" xmlns:xlink="http://www.w3.org/1999/xlink" x="0px" y="0px"
	 viewBox="0 0 512 512" style="enable-background:new 0 0 512 512;" xml:space="preserve">
<g>
	<g>
		<path d="M415.896,139.112c-5.523,0-10.001,4.479-10.001,10.001v169.484H256.6l112.298-112.298c3.906-3.906,3.906-10.238,0-14.145
			c-3.906-3.905-10.237-3.905-14.145,0l-110.88,110.88V159.115h54.134c5.523,0,10.001-4.479,10.001-10.001
			c0-5.523-4.479-10.001-10.001-10.001H63.234c4.375-15.556,18.679-26.997,35.614-26.997H259.83c5.523,0,10.001-4.479,10.001-10.001
			c0-5.523-4.479-10.001-10.001-10.001H98.846c-31.43,0-57.001,25.57-57.001,57.001v250.776c0,34.806,24.811,63.922,57.675,70.6
			v7.506c0,18.751,15.254,34.005,34.005,34.005c18.75,0,34.005-15.254,34.005-34.005v-6.064h132.684v6.064
			c0,18.751,15.254,34.005,34.005,34.005c18.75,0,34.005-15.254,34.005-34.005v-7.506c32.863-6.678,57.675-35.794,57.675-70.6
			V149.114C425.897,143.59,421.42,139.112,415.896,139.112z M61.848,159.115H223.87v159.483H79.158l78.336-78.336
			c3.906-3.906,3.906-10.238,0-14.145c-3.907-3.905-10.237-3.905-14.145,0l-81.5,81.5V159.115z M147.527,477.995
			c0,7.721-6.281,14.002-14.002,14.002c-7.721,0-14.002-6.281-14.002-14.002v-6.064h28.004V477.995z M348.22,477.995
			c0,7.721-6.281,14.002-14.002,14.002c-7.721,0-14.002-6.281-14.002-14.002v-6.064h28.004V477.995z M405.895,399.889
			c0,28.694-23.345,52.039-52.039,52.039h-43.641H157.528h-43.641c-28.694,0-52.039-23.345-52.039-52.039V338.6h344.046V399.889z"/>
	</g>
</g>
<g>
	<g>
		<path d="M290.212,380.011H177.531c-5.523,0-10.001,4.479-10.001,10.001s4.479,10.001,10.001,10.001h112.681
			c5.523,0,10.001-4.479,10.001-10.001S295.736,380.011,290.212,380.011z"/>
	</g>
</g>
<g>
	<g>
		<path d="M187.83,195.776c-1.86-1.859-4.441-2.92-7.071-2.92c-2.63,0-5.211,1.061-7.07,2.92c-1.86,1.87-2.931,4.441-2.931,7.081
			c0,2.631,1.07,5.201,2.931,7.071c1.859,1.861,4.44,2.92,7.07,2.92c2.63,0,5.211-1.06,7.071-2.92c1.86-1.87,2.93-4.44,2.93-7.071
			C190.761,200.216,189.692,197.646,187.83,195.776z"/>
	</g>
</g>
<g>
	<g>
		<path d="M401.715,109.069c-21.959-21.959-57.69-21.959-79.654,0c-3.906,3.906-3.906,10.237,0,14.145
			c3.907,3.904,10.237,3.906,14.145,0c14.161-14.16,37.205-14.162,51.364,0c1.954,1.952,4.514,2.929,7.073,2.929
			c2.56,0,5.119-0.977,7.072-2.929C405.621,119.309,405.621,112.976,401.715,109.069z"/>
	</g>
</g>
<g>
	<g>
		<path d="M434.471,76.316c-19.388-19.388-45.164-30.064-72.582-30.064c-27.418,0-53.194,10.676-72.581,30.064
			c-3.906,3.906-3.906,10.238,0,14.145c3.907,3.905,10.237,3.905,14.145,0c15.608-15.609,36.362-24.205,58.437-24.205
			c22.075,0,42.828,8.596,58.437,24.205c1.953,1.952,4.513,2.929,7.072,2.929c2.559,0,5.119-0.977,7.072-2.929
			C438.376,86.555,438.376,80.222,434.471,76.316z"/>
	</g>
</g>
<g>
	<g>
		<path d="M467.224,43.561c-58.082-58.082-152.589-58.082-210.671,0c-3.906,3.906-3.906,10.238,0,14.145
			c3.906,3.905,10.237,3.905,14.145,0c50.282-50.284,132.1-50.284,182.382,0c1.953,1.952,4.513,2.929,7.072,2.929
			c2.559,0,5.119-0.977,7.072-2.929C471.131,53.8,471.131,47.467,467.224,43.561z"/>
	</g>
</g>
<g>
	<g>
		<path d="M368.955,142.04c-1.859-1.86-4.431-2.93-7.061-2.93c-2.64,0-5.211,1.069-7.081,2.93c-1.86,1.87-2.93,4.441-2.93,7.071
			c0,2.63,1.069,5.211,2.93,7.07c1.87,1.86,4.441,2.931,7.081,2.931c2.63,0,5.201-1.07,7.061-2.931
			c1.87-1.859,2.931-4.431,2.931-7.07C371.886,146.48,370.825,143.9,368.955,142.04z"/>
	</g>
</g>
<g>
	<g>
		<path d="M105.854,358.846c-17.186,0-31.167,13.981-31.167,31.166c0,17.186,13.981,31.167,31.167,31.167
			c17.186,0,31.167-13.981,31.167-31.167C137.022,372.827,123.041,358.846,105.854,358.846z M105.854,401.177
			c-6.156,0-11.164-5.009-11.164-11.164s5.009-11.164,11.164-11.164s11.165,5.008,11.165,11.164S112.01,401.177,105.854,401.177z"/>
	</g>
</g>
<g>
	<g>
		<path d="M361.889,358.846c-17.186,0-31.167,13.981-31.167,31.166c0,17.186,13.981,31.167,31.167,31.167
			c17.186,0,31.167-13.981,31.167-31.167C393.056,372.827,379.075,358.846,361.889,358.846z M361.889,401.177
			c-6.156,0-11.164-5.009-11.164-11.164s5.009-11.164,11.164-11.164s11.164,5.008,11.164,11.164S368.045,401.177,361.889,401.177z"
			/>
	</g>
</g>
<g>
</g>
<g>
</g>
<g>
</g>
<g>
</g>
<g>
</g>
<g>
</g>
<g>
</g>
<g>
</g>
<g>
</g>
<g>
</g>
<g>
</g>
<g>
</g>
<g>
</g>
<g>
</g>
<g>
</g>
</svg>
